<?xml version="1.0" encoding="UTF-8"?>
<!DOCTYPE svg PUBLIC "-//W3C//DTD SVG 1.1//EN" "http://www.w3.org/Graphics/SVG/1.1/DTD/svg11.dtd">
<!-- Creator: CorelDRAW X5 -->
<svg xmlns="http://www.w3.org/2000/svg" xml:space="preserve" width="116.84mm" height="116.84mm" style="shape-rendering:geometricPrecision; text-rendering:geometricPrecision; image-rendering:optimizeQuality; fill-rule:evenodd; clip-rule:evenodd"
viewBox="0 0 4168 4168"
 xmlns:xlink="http://www.w3.org/1999/xlink">
 <defs>
  <style type="text/css">
   <![CDATA[
    .fil0 {fill:#08205E}
    .fil2 {fill:#ED3237;fill-rule:nonzero}
    .fil1 {fill:#FEFEFE;fill-rule:nonzero}
   ]]>
  </style>
 </defs>
 <g id="Capa_x0020_1">
  <metadata id="CorelCorpID_0Corel-Layer"/>
  <circle class="fil0" cx="2084" cy="2084" r="2084"/>
  <g id="_253917336">
   <path class="fil1" d="M1894 1107c37,-9 73,-16 109,-23 453,-89 879,-72 1207,30 331,103 562,292 621,548 2,7 3,13 4,19 53,272 -96,562 -380,813 -281,248 -696,457 -1177,568 -37,9 -73,16 -109,23 -453,89 -879,72 -1207,-30 -331,-103 -562,-292 -621,-548 -2,-7 -3,-13 -4,-19 -53,-272 96,-562 380,-813 281,-248 696,-457 1177,-568z"/>
   <path class="fil2" d="M1894 1107c37,-9 73,-16 109,-23 453,-89 879,-72 1207,30 331,103 562,292 621,548 2,7 3,13 4,19 53,272 -96,562 -380,813 -281,248 -696,457 -1177,568 -37,9 -73,16 -109,23 -453,89 -879,72 -1207,-30 -331,-103 -562,-292 -621,-548 -2,-7 -3,-13 -4,-19 -53,-272 96,-562 380,-813 281,-248 696,-457 1177,-568zm116 13c-36,7 -72,15 -108,23 -475,110 -884,316 -1161,560 -274,242 -419,520 -368,778 1,6 2,12 4,18 56,242 278,422 596,521 322,100 741,116 1189,29 36,-7 72,-15 108,-23 475,-110 884,-316 1161,-560 274,-242 419,-520 368,-778 -1,-6 -2,-12 -4,-18 -56,-242 -278,-422 -596,-521 -322,-100 -741,-116 -1189,-29z"/>
   <path class="fil2" d="M1815 1277c35,-5 68,-10 99,-14 413,-50 794,-8 1082,105 291,114 486,299 523,533 1,7 2,13 2,17 30,248 -123,500 -394,706 -269,204 -654,365 -1093,434 -35,5 -68,10 -99,14 -413,50 -794,8 -1082,-105 -291,-114 -486,-299 -523,-533 -1,-7 -2,-13 -2,-17 -30,-248 123,-500 394,-706 269,-204 654,-365 1093,-434zm104 23c-34,4 -67,9 -98,14 -433,68 -813,226 -1077,427 -261,199 -408,439 -380,673 1,7 2,12 2,16 34,220 221,396 500,504 282,110 657,152 1064,102 34,-4 67,-9 98,-14 433,-68 813,-226 1077,-427 261,-199 408,-439 380,-673 -1,-7 -2,-12 -2,-16 -34,-220 -221,-396 -500,-504 -282,-110 -657,-152 -1064,-102z"/>
   <path class="fil2" d="M875 2337l0 -648 31 0 0 572 115 0 0 77 -146 0zm173 -316c0,-108 10,-192 31,-253 21,-61 48,-91 81,-91 22,0 41,14 58,43 17,29 30,69 40,120 9,51 14,109 14,174 0,66 -5,125 -14,176 -10,52 -23,91 -41,118 -18,27 -36,40 -57,40 -22,0 -42,-15 -59,-44 -17,-29 -30,-70 -39,-121 -9,-51 -13,-105 -13,-162zm32 1c0,78 8,140 23,185 15,45 34,67 57,67 23,0 42,-23 57,-68 15,-45 23,-110 23,-193 0,-53 -3,-99 -10,-138 -6,-39 -16,-70 -28,-92 -12,-22 -26,-32 -42,-32 -22,0 -41,21 -56,63 -16,42 -24,111 -24,209zm322 314l0 -648 80 0c18,0 32,3 42,9 13,8 25,24 34,46 12,29 22,66 28,111 6,45 9,96 9,154 0,49 -2,93 -6,131 -4,38 -9,70 -16,94 -6,25 -14,45 -21,59 -8,14 -17,25 -28,33 -11,7 -23,11 -37,11l-84 0zm31 -77l50 0c15,0 27,-4 36,-12 9,-8 16,-19 21,-34 7,-20 13,-48 17,-82 4,-34 6,-76 6,-125 0,-68 -4,-120 -12,-156 -8,-37 -18,-61 -29,-73 -8,-9 -22,-13 -40,-13l-49 0 0 495zm205 77l0 -648 169 0 0 77 -138 0 0 198 129 0 0 76 -129 0 0 221 143 0 0 77 -174 0zm306 0l0 -648 47 0 55 459c5,43 9,75 11,96 3,-24 7,-58 12,-104l56 -451 42 0 0 648 -30 0 0 -543 -68 543 -28 0 -67 -552 0 552 -30 0zm247 0l90 -648 33 0 96 648 -35 0 -27 -196 -98 0 -26 196 -33 0zm67 -266l79 0 -24 -179c-7,-54 -13,-99 -17,-134 -3,42 -7,83 -13,124l-26 190zm176 266l0 -648 103 0c21,0 37,6 47,18 11,12 19,32 26,62 6,30 10,62 10,98 0,46 -5,85 -16,116 -11,32 -27,52 -50,60 8,11 14,22 19,32 9,23 18,52 26,86l41 176 -39 0 -31 -135c-9,-39 -16,-69 -22,-89 -6,-21 -11,-35 -16,-43 -5,-8 -9,-14 -14,-17 -4,-2 -9,-3 -17,-3l-36 0 0 288 -31 0zm31 -362l66 0c14,0 25,-4 33,-12 8,-8 14,-21 18,-39 4,-18 6,-37 6,-58 0,-31 -4,-56 -12,-76 -8,-20 -21,-30 -38,-30l-74 0 0 214zm258 362l0 -572 -77 0 0 -77 185 0 0 77 -77 0 0 572 -31 0zm145 0l0 -648 31 0 0 648 -31 0zm85 0l0 -648 32 0 123 509 0 -509 30 0 0 648 -32 0 -123 -509 0 509 -30 0z"/>
  </g>
 </g>
</svg>
